# xmcd
#
# Track frame offsets:
#	150
#	12274
#	28021
#	50666
#	63085
#	83983
#	105727
#	117851
#	133598
#	156199
#	168597
#	189493
#
# Disc length: 2817 seconds
#
# Revision: 0
# Processed by: cddbd v1.5.2PL0 Copyright (c) Steve Scherf et al.
# Submitted via: audiograbber 1.83.01
#
DISCID=9b0aff0c
DTITLE=Gospel - Vol. 4
DYEAR=1900
DGENRE=Gospel
TTITLE0=God's Bigger Than That
TTITLE1=He Saw It All
TTITLE2=Midnight Cry
TTITLE3=Step Into The Water
TTITLE4=Ten Thousand Angels Cried
TTITLE5=Wish You Were Here
TTITLE6=God's Bigger Than That
TTITLE7=He Saw It All
TTITLE8=Midnight Cry
TTITLE9=Step Into The Water
TTITLE10=Ten Thousand Angels Cried
TTITLE11=Wish You Were Here
EXTD=
EXTT0=
EXTT1=
EXTT2=
EXTT3=
EXTT4=
EXTT5=
EXTT6=
EXTT7=
EXTT8=
EXTT9=
EXTT10=
EXTT11=
PLAYORDER=
